# xmcd CD database file
# Copyright (C) 1997 Ti Kan
# 
# Track frame offsets:
#     150
#     12645
#     25708
#     36663
#     48420
#     60565
#     73253
#     86400
#     98160
#     109473
#     123688
#     135378
#     147753
#     161588
#     171330
#     181783
#     195768
#     209655
#     222563
#     236360
#     250873
#     263940
#     278930
#     293890
#     308848
# 
# Disc length: 4265 seconds
# 
# Revision: 1
# Processed by: cddbd v1.4b41PL1 Copyright (c) Steve Scherf et al.
# Submitted via: DiscPlay 4.0.4
# 
DISCID=7d10a719
DTITLE=George Jones - Legendary Country Singers
DYEAR=1900
DGENRE=
TTITLE0=Why, Baby, Why
TTITLE1=Color of the Blues
TTITLE2=Tender Years
TTITLE3=The Window Up Above
TTITLE4=We Must Have Been Out of Our Minds
TTITLE5=White Lightning
TTITLE6=Things Have Gone to Pieces
TTITLE7=She Thinks I Still Care
TTITLE8=I'll Share My World with You
TTITLE9=The Grand Tour
TTITLE10=A Picture of Me (Without You)
TTITLE11=The Door
TTITLE12=These Days (I Barely Get By)
TTITLE13=The Race Is On
TTITLE14=Walk Through This World with Me
TTITLE15=Loving You Could Never Be Better
TTITLE16=A Good Year for the Roses
TTITLE17=Still Doin' Time
TTITLE18=Golden Ring
TTITLE19=If Drinkin' Don't Kill Me (Her Memory Will)
TTITLE20=Tennessee Whiskey
TTITLE21=I Always Get Lucky with You
TTITLE22=He Stopped Loving Her Today
TTITLE23=Who's Gonna Fill Their Shoes
TTITLE24=I'm Gonna Burn Your Playhouse Down
EXTD=
EXTT0=
EXTT1=
EXTT2=
EXTT3=
EXTT4=
EXTT5=
EXTT6=
EXTT7=
EXTT8=
EXTT9=
EXTT10=
EXTT11=
EXTT12=
EXTT13=
EXTT14=
EXTT15=
EXTT16=
EXTT17=
EXTT18=
EXTT19=
EXTT20=
EXTT21=
EXTT22=
EXTT23=
EXTT24=
PLAYORDER=
